<?xml version="1.0" encoding="UTF-8"?>
<svg width="164px" height="35px" viewBox="0 0 163.3 34.3" version="1.1" xmlns="http://www.w3.org/2000/svg" xmlns:xlink="http://www.w3.org/1999/xlink">
    <title>Agility Product Logo [Recovered]_Incident Management - S copy</title>
	<style type="text/css">
		.st0{fill:#033951;}
		.st1{fill:#2196A6;}
		.st2{fill:none;stroke:#003852;stroke-width:0.5;stroke-miterlimit:10;}
		.st3{fill:#003852;}
		.st4{fill:#00496A;}
		.st5{fill:none;stroke:#005984;stroke-width:0.5;stroke-miterlimit:10;}
		.st6{fill:#005984;}
		.st7{fill:none;stroke:#005984;stroke-width:0.75;stroke-miterlimit:10;}
	</style>
	<g id="Page-1_5_">
		<g id="option-3.1---Power-User_5_" transform="translate(-61.000000, -21.000000)">
			
				<g id="Agility-Product-Logo-_x5B_Recovered_x5D__x5F_Incident-Management---S-copy_5_" transform="translate(61.000000, 21.000000)">
				<polygon id="Path_47_" class="st6" points="102.9,0.5 104.9,0.5 104.9,14.5 102.9,14.5 			"/>
				<path id="Shape_41_" class="st6" d="M0.9,0.5h6.7c3.1,0,5.1,2.1,5.1,4.8c0,2-1.4,3.6-3.3,4.2l3.5,5H9.7l-2.9-4.4H3.5v4.4H0.9V0.5
					z M3.5,7.6h3.9c1.8,0,2.7-1.1,2.7-2.3S9.3,3,7.4,3H3.5V7.6z"/>
				<path id="Shape_40_" class="st6" d="M24.4,12c-1.2,1.6-2.9,2.5-4.8,2.5c-3.6,0-5.7-2.7-5.7-5.5s2.1-5.5,5.7-5.5
					c2.1,0,5.3,1.8,5.3,5.9v0.4h-8.5c0.1,1.6,1.6,2.7,3.1,2.7c1.2,0,2.2-0.6,3-1.6L24.4,12z M22.4,7.9c-0.5-1.6-1.6-2.4-3-2.4
					c-1.4,0-2.5,0.9-2.9,2.4H22.4z"/>
				<path id="Path_46_" class="st6" d="M34.1,7.2c-0.6-0.9-1.4-1.6-2.6-1.6c-1.9,0-3.2,1.5-3.2,3.4s1.4,3.4,3.2,3.4
					c1.2,0,2-0.6,2.6-1.6l1.9,1.2c-0.9,1.5-2.6,2.5-4.5,2.5c-3.5,0-5.5-2.7-5.5-5.5s2-5.5,5.5-5.5c2.1,0,3.5,1.1,4.5,2.5L34.1,7.2z"
					/>
				<path id="Shape_39_" class="st6" d="M42.9,3.5c3.8,0,6,2.7,6,5.5s-2.2,5.5-6,5.5s-6-2.7-6-5.5S39.1,3.5,42.9,3.5z M42.9,12.4
					c2,0,3.5-1.5,3.5-3.4S45,5.6,42.9,5.6S39.4,7.1,39.4,9S40.9,12.4,42.9,12.4z"/>
				<polygon id="Path_45_" class="st6" points="48.9,3.5 51.5,3.5 53.9,9.6 54,9.6 56.4,3.5 58.9,3.5 53.9,14.5 			"/>
				<path id="Shape_38_" class="st6" d="M69.4,12c-1.2,1.6-2.9,2.5-4.8,2.5c-3.6,0-5.7-2.7-5.7-5.5s2.1-5.5,5.7-5.5
					c2.1,0,5.3,1.8,5.3,5.9v0.4h-8.5c0.1,1.6,1.6,2.7,3.1,2.7c1.2,0,2.2-0.6,3-1.6L69.4,12z M67.4,7.9c-0.5-1.6-1.6-2.4-3-2.4
					c-1.4,0-2.5,0.9-2.9,2.4H67.4z"/>
				<path id="Path_44_" class="st6" d="M71.9,3.8h1.9V5h0c0.3-0.9,1.1-1.5,1.9-1.5c0.4,0,0.8,0.1,1.1,0.3l-0.7,2.3
					c-0.2-0.2-0.5-0.3-0.8-0.3c-0.4,0-0.8,0.2-1,0.5S74,7,74,7.4v7.1h-2.1V3.8z"/>
				<path id="Path_43_" class="st6" d="M77.9,3.5h2.4v6.2c0,1.8,1.1,2.5,2.6,2.5c1.8,0,2.7-1.1,2.7-2.7v-6h2.4v10.3
					c0,3.3-3,4.7-5,4.7c-2.5,0-3.6-0.9-4.6-2.1l2-1.2c0.7,0.7,1.5,1.1,2.5,1.1c1.6,0,2.9-0.9,2.9-2.8V13h0c-0.9,1-1.8,1.5-3.3,1.5
					c-2.4,0-4.4-1.8-4.4-4.8V3.5z"/>
				<path id="Shape_37_" class="st6" d="M90.9,0.5h6.3c2.9,0,4.7,2.1,4.7,4.8s-1.8,4.8-4.7,4.8h-3.8v4.4h-2.4V0.5z M93.4,7.6H97
					c1.7,0,2.5-1.1,2.5-2.3S98.7,3,97,3h-3.6V7.6z"/>
				<path id="Shape_36_" class="st6" d="M116.7,12.9L116.7,12.9c-0.7,0.9-2,1.6-3.4,1.6c-3.4,0-5.4-2.8-5.4-5.5
					c0-2.6,2.1-5.5,5.5-5.5c1.5,0,2.7,0.7,3.3,1.6h0V3.8h2.2v10.4h-2.2V12.9z M113.6,12.4c1.7,0,3.2-1.5,3.2-3.4s-1.5-3.4-3.2-3.4
					c-1.8,0-3.3,1.5-3.3,3.4S111.8,12.4,113.6,12.4L113.6,12.4z"/>
				<path id="Path_42_" class="st6" d="M120.9,3.8h2.4v1.4h0c0.7-1,1.9-1.6,3.3-1.6c2.3,0,4.3,1.9,4.3,4.5v6.5h-2.4v-6
					c0-1.9-1-2.7-2.6-2.7c-1.5,0-2.7,1-2.7,2.7v6h-2.4V3.8z"/>
				<path id="Path_41_" class="st6" d="M132.9,3.8h2.4v1.4h0c0.7-1,1.9-1.6,3.3-1.6c2.3,0,4.2,1.9,4.2,4.5v6.5h-2.4v-6
					c0-1.9-1-2.7-2.6-2.7c-1.5,0-2.7,1-2.7,2.7v6h-2.4L132.9,3.8z"/>
				<path id="Shape_35_" class="st6" d="M154.4,12c-1.2,1.6-2.9,2.5-4.8,2.5c-3.6,0-5.7-2.7-5.7-5.5s2.1-5.5,5.7-5.5
					c2.1,0,5.3,1.8,5.3,5.9v0.4h-8.5c0.1,1.6,1.6,2.7,3.1,2.7c1.2,0,2.2-0.6,3-1.6L154.4,12z M152.4,7.9c-0.5-1.6-1.6-2.4-3-2.4
					s-2.5,0.9-2.9,2.4H152.4z"/>
				<path id="Path_40_" class="st6" d="M157.9,3.8h1.9V5h0c0.3-0.9,1.1-1.5,1.9-1.5c0.4,0,0.8,0.1,1.1,0.3l-0.7,2.3
					c-0.2-0.2-0.5-0.3-0.8-0.3c-0.4,0-0.8,0.2-1,0.5S160,7,160,7.4v7.1h-2.1V3.8z"/>
			</g>
		</g>
	</g>
	<path class="st7" d="M138.9,32c-1.2,1-2.8,1.5-4.5,1.5c-4.1,0-7.3-3.3-7.3-7.3s3.3-7.3,7.3-7.3c2.9,0,5.4,1.7,6.6,4.1"/>
	<g>
		<path class="st6" d="M133.5,23.2h-2.3l0.6-1.3h3.2l3.2,7.6h-1.5l-0.6-1.4h-3.2l-0.6,1.4h-1.5L133.5,23.2z M135.6,26.9l-1.1-2.7
			l-1.1,2.7H135.6z"/>
		<path class="st6" d="M144.2,28.9c0,1.9-1.5,3.1-3.1,3.1c-0.8,0-1.8-0.3-2.5-1.2l1-0.8c0.2,0.3,0.8,0.7,1.4,0.7
			c1.3,0,1.9-0.8,1.9-1.7v-0.4c-0.5,0.6-1.1,0.9-2,0.9c-1.5,0-2.8-1.1-2.8-3c0-1.9,1.4-3,3-3c0.8,0,1.4,0.3,1.8,0.8h0v-0.7h1.2V28.9z
			 M141.2,28.4c1,0,1.7-0.8,1.7-1.8c0-1-0.8-1.8-1.7-1.8c-1,0-1.8,0.8-1.8,1.8C139.5,27.6,140.2,28.4,141.2,28.4z"/>
		<path class="st6" d="M146.3,21.8c0.4,0,0.7,0.3,0.7,0.7c0,0.4-0.3,0.7-0.7,0.7s-0.7-0.3-0.7-0.7C145.6,22.1,145.9,21.8,146.3,21.8z
			 M145.7,23.7h1.3v5.9h-1.3V23.7z"/>
		<path class="st6" d="M148.5,29.6V22h1.3v7.6"/>
		<path class="st6" d="M151.9,21.8c0.4,0,0.7,0.3,0.7,0.7c0,0.4-0.3,0.7-0.7,0.7c-0.4,0-0.7-0.3-0.7-0.7
			C151.2,22.1,151.5,21.8,151.9,21.8z M151.3,23.7h1.3v5.9h-1.3V23.7z"/>
		<path class="st6" d="M154.3,29.6v-4.7h-0.7v-1.2h0.7V22h1.3v1.7h1v1.2h-1v4.7"/>
		<path class="st6" d="M157.3,23.7h1.3v3.4c0,1,0.6,1.4,1.4,1.4c1,0,1.5-0.6,1.5-1.5v-3.3h1.3v5.7c0,1.8-1.6,2.6-2.7,2.6
			c-1.3,0-1.9-0.5-2.5-1.2l1.1-0.7c0.4,0.4,0.8,0.6,1.3,0.6c0.8,0,1.6-0.5,1.6-1.5v-0.3h0c-0.5,0.6-1,0.8-1.8,0.8
			c-1.3,0-2.4-1-2.4-2.6V23.7z"/>
	</g>
	<path class="st6" d="M133.6,23.2h-2.3l0.6-1.3h3.2l3.2,7.6h-1.5l-0.6-1.4h-3.2l-0.6,1.4h-1.5L133.6,23.2z M135.6,26.8l-1.1-2.7
		l-1.1,2.7H135.6z"/>
	<g>
		<path class="st6" d="M54.1,21.7H58c1.8,0,2.9,1.2,2.9,2.8c0,1.6-1.1,2.8-2.9,2.8h-2.3v2.5h-1.5V21.7z M55.6,25.8h2.2
			c1.1,0,1.5-0.6,1.5-1.3s-0.5-1.3-1.5-1.3h-2.2V25.8z"/>
		<path class="st6" d="M64.9,23.4c2.2,0,3.4,1.6,3.4,3.3s-1.3,3.3-3.4,3.3s-3.4-1.6-3.4-3.3S62.7,23.4,64.9,23.4z M64.9,28.7
			c1.2,0,2-0.9,2-2c0-1.1-0.8-2-2-2c-1.2,0-2,0.9-2,2C62.9,27.8,63.7,28.7,64.9,28.7z"/>
		<path class="st6" d="M68.8,23.5h1.4l1.1,3.4h0l1.3-3l1.3,3h0l1.1-3.4h1.4l-2.4,6.4l-1.4-3.4h0l-1.4,3.4L68.8,23.5z"/>
		<path class="st6" d="M83.3,28.4c-0.7,0.9-1.8,1.5-2.9,1.5c-2.2,0-3.4-1.6-3.4-3.3s1.3-3.3,3.4-3.3c1.3,0,3.2,1.1,3.2,3.5v0.2h-5.2
			c0.1,0.9,1,1.6,1.9,1.6c0.7,0,1.3-0.3,1.8-1L83.3,28.4z M82.1,26c-0.3-0.9-1-1.4-1.8-1.4s-1.5,0.5-1.8,1.4H82.1z"/>
		<path class="st6" d="M85,23.5h1.3v0.7h0c0.2-0.5,0.7-0.8,1.2-0.8c0.3,0,0.6,0.1,0.7,0.2l-0.5,1.3c-0.1-0.1-0.4-0.2-0.5-0.2
			c-0.5,0-0.9,0.4-0.9,0.9v4.1H85V23.5z"/>
		<path class="st6" d="M94.8,28.4c-0.7,0.9-1.8,1.5-2.9,1.5c-2.2,0-3.4-1.6-3.4-3.3s1.3-3.3,3.4-3.3c1.3,0,3.2,1.1,3.2,3.5v0.2h-5.2
			c0.1,0.9,1,1.6,1.9,1.6c0.7,0,1.3-0.3,1.8-1L94.8,28.4z M93.5,26c-0.3-0.9-1-1.4-1.8-1.4c-0.8,0-1.5,0.5-1.8,1.4H93.5z"/>
		<path class="st6" d="M101.3,29L101.3,29c-0.4,0.6-1.2,0.9-2.1,0.9c-2,0-3.2-1.7-3.2-3.3c0-1.5,1.3-3.3,3.3-3.3c0.9,0,1.6,0.4,2,0.9
			h0v-2.6h1.3v8.1h-1.3V29z M99.4,28.7c1.1,0,1.9-0.9,1.9-2c0-1.1-0.9-2-1.9-2c-1.1,0-2,0.9-2,2C97.4,27.8,98.3,28.7,99.4,28.7z"/>
		<path class="st6" d="M108,21.7h4.3c1.2,0,2.3,0.7,2.3,2.2c0,0.7-0.4,1.3-1,1.6c0.8,0.3,1.4,0.9,1.4,2c0,1.4-1.1,2.3-2.5,2.3H108
			V21.7z M109.5,24.9h2.6c0.7,0,1-0.4,1-0.9c0-0.5-0.3-0.9-1-0.9h-2.6V24.9z M109.5,28.3h2.9c0.7,0,1.2-0.4,1.2-1c0-0.6-0.5-1-1.2-1
			h-2.9V28.3z"/>
		<path class="st6" d="M116.3,23.5h1.3v3.6c0,1,0.6,1.5,1.5,1.5c1,0,1.5-0.6,1.5-1.6v-3.5h1.3v6c0,1.9-1.7,2.7-2.8,2.7
			c-1.4,0-2-0.5-2.6-1.2l1.1-0.7c0.4,0.4,0.8,0.7,1.4,0.7c0.9,0,1.7-0.5,1.7-1.6v-0.3h0c-0.5,0.6-1,0.8-1.9,0.8c-1.4,0-2.5-1-2.5-2.8
			V23.5z"/>
	</g>
</svg>