<?xml version="1.0" encoding="UTF-8"?>
<svg width="162px" height="18px" viewBox="0 0 162 18" version="1.1" xmlns="http://www.w3.org/2000/svg" xmlns:xlink="http://www.w3.org/1999/xlink">
    <title>Agility Product Logo [Recovered]_Incident Management - S copy</title>
    <g id="Page-1" stroke="none" stroke-width="1" fill="none" fill-rule="evenodd">
        <g id="option-3.1---Power-User" transform="translate(-61.000000, -21.000000)" fill="#033951" fill-rule="nonzero">
            <g id="Agility-Product-Logo-[Recovered]_Incident-Management---S-copy" transform="translate(61.000000, 21.000000)">
                <polygon id="Path" points="102 0 104 0 104 14 102 14"></polygon>
                <path d="M0,0 L6.70666361,0 C9.84749256,0 11.7755896,2.05111198 11.7755896,4.79321108 C11.7755896,6.82156327 10.3631784,8.42658343 8.47813144,9.0065028 L12,14 L8.72544081,14 L5.78703916,9.58642216 L2.6022441,9.58642216 L2.6022441,14 L0,14 L0,0 Z M2.6022441,7.13564833 L6.50515228,7.13564833 C8.34440119,7.13564833 9.17426151,6.04317857 9.17426151,4.79503186 C9.17426151,3.54688516 8.34440119,2.4544154 6.50515228,2.4544154 L2.6022441,2.4544154 L2.6022441,7.13564833 Z" id="Shape"></path>
                <path d="M23.4475717,11.455237 C22.216099,13.030189 20.517187,13.9788597 18.6699779,14 C15.0813623,14 13,11.261451 13,8.5 C13,5.73854901 15.0813623,3 18.6699779,3 C20.8146484,3 24,4.78987828 24,8.86731262 L24,9.28042921 L15.4629454,9.28042921 C15.5904289,10.8765215 17.0560549,12.0198591 18.6058026,12.0198591 C19.7956481,12.0198591 20.8146484,11.4376201 21.5786818,10.4017457 L23.4475717,11.455237 Z M21.4095711,7.42184497 C20.9421318,5.82575272 19.7739672,4.98454516 18.374251,4.98454516 C16.9745348,4.98454516 15.8263166,5.86539078 15.4646799,7.42184497 L21.4095711,7.42184497 Z" id="Shape"></path>
                <path d="M33.1201485,6.68810058 C32.5413432,5.76057015 31.7355721,5.11402947 30.5163685,5.11402947 C28.636517,5.11402947 27.2730341,6.62379885 27.2730341,8.5 C27.2730341,10.3762012 28.636517,11.8868514 30.5163685,11.8868514 C31.6976038,11.8868514 32.5413432,11.261451 33.1201485,10.3118994 L35,11.4772582 C34.1115424,12.9438661 32.4173135,14 30.5163685,14 C27.0249747,14 25,11.261451 25,8.5 C25,5.73854901 27.0249747,3 30.5163685,3 C32.6442794,3 34.0288559,4.05701473 35,5.52362268 L33.1201485,6.68810058 Z" id="Path"></path>
                <path d="M42,3 C45.7974916,3 48,5.73942985 48,8.5 C48,11.2605701 45.7974916,14 42,14 C38.2025084,14 36,11.261451 36,8.5 C36,5.73854901 38.2025084,3 42,3 Z M42,11.8868514 C44.044662,11.8868514 45.528602,10.377082 45.528602,8.5 C45.528602,6.622918 44.044662,5.11402947 42,5.11402947 C39.955338,5.11402947 38.4723157,6.62379885 38.4723157,8.5 C38.4723157,10.3762012 39.955338,11.8868514 42,11.8868514 Z" id="Shape"></path>
                <polygon id="Path" points="48 3 50.5888788 3 52.9772106 9.13089565 53.0218778 9.13089565 55.4102097 3 58 3 52.9972653 14"></polygon>
                <path d="M68.4475717,11.455237 C67.216099,13.030189 65.517187,13.9788597 63.6699779,14 C60.0804951,14 58,11.261451 58,8.5 C58,5.73854901 60.0813623,3 63.6699779,3 C65.8146484,3 69,4.78987828 69,8.86731262 L69,9.28042921 L60.4629454,9.28042921 C60.5904289,10.8765215 62.0560549,12.0198591 63.6058026,12.0198591 C64.7956481,12.0198591 65.8146484,11.4376201 66.5786818,10.4017457 L68.4475717,11.455237 Z M66.4095711,7.42184497 C65.9421318,5.82575272 64.7739672,4.98454516 63.374251,4.98454516 C61.9745348,4.98454516 60.8254494,5.86539078 60.4646799,7.42184497 L66.4095711,7.42184497 Z" id="Shape"></path>
                <path d="M71,3.28632569 L72.9433198,3.28632569 L72.9433198,4.46146715 L72.982996,4.46146715 C73.3198381,3.57649523 74.0356275,3.00067592 74.8663968,3.00067592 C75.2646917,2.99004386 75.6575981,3.10502877 76,3.33242739 L75.2663968,5.61310578 C75.0387536,5.43303476 74.7713663,5.3258223 74.4931174,5.30304923 C74.1102611,5.29782158 73.7418775,5.46617771 73.4722074,5.76961851 C73.2025373,6.07305931 73.0546443,6.48563278 73.0623482,6.91299303 L73.0623482,14 L71,14 L71,3.28632569 Z" id="Path"></path>
                <path d="M77,3 L79.3531042,3 L79.3531042,9.24663194 C79.3531042,11.027663 80.4839246,11.7758218 81.9325573,11.7758218 C83.7645972,11.7758218 84.6468958,10.6755883 84.6468958,9.02658523 L84.6468958,3 L87,3 L87,13.3152506 C87,16.5701455 84.0362158,18 82,18 C79.5341833,18 78.4255358,17.1018502 77.3621582,15.9100054 L79.3531042,14.7226513 C80.0995935,15.4268008 80.8460828,15.8444405 81.8641907,15.8444405 C83.4255358,15.8444405 84.7827051,14.9202443 84.7827051,13.0511945 L84.7827051,12.4790731 L84.7374353,12.4790731 C83.8135625,13.4912879 82.9497413,13.9304832 81.4345898,13.9304832 C78.990946,13.9304832 77,12.1494521 77,9.15861326 L77,3 Z" id="Path"></path>
                <path d="M90,0 L96.2649347,0 C99.1980398,0 101,2.05111198 101,4.79321108 C101,7.53531018 99.1980398,9.58642216 96.2649347,9.58642216 L92.4299938,9.58642216 L92.4299938,14 L90,14 L90,0 Z M92.4299938,7.13564833 L96.0749844,7.13564833 C97.7930927,7.13564833 98.568295,6.04317857 98.568295,4.79503186 C98.568295,3.54688516 97.7930927,2.4544154 96.0749844,2.4544154 L92.4299938,2.4544154 L92.4299938,7.13564833 Z" id="Shape"></path>
                <path d="M115.782588,12.4470692 L115.739929,12.4470692 C115.036486,13.3966208 113.757578,14 112.350693,14 C108.960586,14 107,11.1962684 107,8.5 C107,5.93321589 109.110328,3 112.456905,3 C113.991769,3 115.164464,3.66856182 115.739929,4.55293081 L115.782588,4.55293081 L115.782588,3.27570468 L118,3.27570468 L118,13.7154869 L115.782588,13.7154869 L115.782588,12.4470692 Z M112.627543,11.8868514 C114.375702,11.8868514 115.867907,10.377082 115.867907,8.5 C115.867907,6.622918 114.375702,5.11402947 112.627543,5.11402947 C110.836723,5.11402947 109.344519,6.62379885 109.344519,8.5 C109.344519,10.3762012 110.836723,11.8824471 112.627543,11.8824471 L112.627543,11.8868514 Z" id="Shape"></path>
                <path d="M120,3.2874281 L122.353974,3.2874281 L122.353974,4.63779786 L122.399261,4.63779786 C123.055453,3.64354971 124.255083,3 125.748614,3 C128.05915,3 130,4.88184059 130,7.53738702 L130,14 L127.649723,14 L127.649723,8.0462613 C127.649723,6.09843878 126.608133,5.3021364 125.047135,5.3021364 C123.530499,5.3021364 122.353974,6.25390304 122.353974,8.00197206 L122.353974,14 L120,14 L120,3.2874281 Z" id="Path"></path>
                <path d="M132.003695,3.2874281 L134.3568,3.2874281 L134.3568,4.63779786 L134.402069,4.63779786 C135.058019,3.64354971 136.257206,3 137.750185,3 C140.059867,3 142,4.88184059 142,7.53738702 L142,14 L139.646896,14 L139.646896,8.0462613 C139.646896,6.09843878 138.606615,5.3021364 137.04527,5.3021364 C135.529194,5.3021364 134.353104,6.25390304 134.353104,8.00197206 L134.353104,14 L132,14 L132.003695,3.2874281 Z" id="Path"></path>
                <path d="M153.448439,11.455237 C152.216099,13.030189 150.518054,13.9788597 148.669978,14 C145.081362,14 143,11.261451 143,8.5 C143,5.73854901 145.081362,3 148.669978,3 C150.814648,3 154,4.78987828 154,8.86731262 L154,9.28042921 L145.462945,9.28042921 C145.590429,10.8765215 147.056055,12.0198591 148.60667,12.0198591 C149.795648,12.0198591 150.814648,11.4376201 151.579549,10.4017457 L153.448439,11.455237 Z M151.409571,7.42184497 C150.942132,5.82575272 149.773967,4.98454516 148.374251,4.98454516 C146.974535,4.98454516 145.826317,5.86539078 145.46468,7.42184497 L151.409571,7.42184497 Z" id="Shape"></path>
                <path d="M157,3.28634324 L158.94332,3.28634324 L158.94332,4.46148278 L158.982996,4.46148278 C159.320648,3.57651231 160.035628,3.00069394 160.866397,3.00069394 C161.264707,2.98991443 161.657649,3.10490968 162,3.33244487 L161.266397,5.61311952 C161.038754,5.4330488 160.771366,5.32583651 160.493117,5.30306347 C160.110122,5.29758893 159.741526,5.46583589 159.471679,5.76930378 C159.201832,6.07277167 159.053829,6.4854863 159.061538,6.91300464 L159.061538,14 L157,14 L157,3.28634324 Z" id="Path"></path>
            </g>
        </g>
    </g>
</svg>